HIERARCHY
ROOT root
{
	OFFSET	0	13.1	24.9
	CHANNELS 6  Xposition Yposition Zposition Xrotation Yrotation Zrotation
	JOINT spine_1
	{
		OFFSET	0	9.99999	0
		CHANNELS 3  Xrotation Yrotation Zrotation
		JOINT spine_2
		{
			OFFSET	0	112	-10
			CHANNELS 3  Xrotation Yrotation Zrotation
			JOINT spine_3
			{
				OFFSET	0	206.5	19.3
				CHANNELS 3  Xrotation Yrotation Zrotation
				JOINT spine_4
				{
					OFFSET	0	110.4	14.6
					CHANNELS 3  Xrotation Yrotation Zrotation
					JOINT neck_1
					{
						OFFSET	0	71.8	-50.3
						CHANNELS 3  Xrotation Yrotation Zrotation
						JOINT neck_2
						{
							OFFSET	0	86.2	-25.8
							CHANNELS 3  Xrotation Yrotation Zrotation
							JOINT head_ee
							{
								OFFSET	0	179.8	-8.7
								CHANNELS 3  Xrotation Yrotation Zrotation
								End Site
								{
									OFFSET	1	0	0
								}
							}
						}
					}
					JOINT left_clavicle
					{
						OFFSET	-43.2	22.4	-70.8
						CHANNELS 3  Xrotation Yrotation Zrotation
						JOINT left_shoulder
						{
							OFFSET	-93.9	-5.79999	48.7
							CHANNELS 3  Xrotation Yrotation Zrotation
							JOINT left_elbow
							{
								OFFSET	-291.4	-30.8	15.2
								CHANNELS 3  Xrotation Yrotation Zrotation
								JOINT left_lowarm_twist
								{
									OFFSET	-110.7	-3.89999	13.6
									CHANNELS 3  Xrotation Yrotation Zrotation
									JOINT left_hand
									{
										OFFSET	-110.7	-3.89999	13.6
										CHANNELS 3  Xrotation Yrotation Zrotation
										JOINT left_ee
										{
											OFFSET	-80.8	-5.10001	12.1
											CHANNELS 3  Xrotation Yrotation Zrotation
											End Site
											{
												OFFSET	1	0	0
											}
										}
									}
								}
							}
						}
					}
					JOINT right_clavicle
					{
						OFFSET	43.2	22.4	-70.8
						CHANNELS 3  Xrotation Yrotation Zrotation
						JOINT right_shoulder
						{
							OFFSET	93.9	-5.79999	48.7
							CHANNELS 3  Xrotation Yrotation Zrotation
							JOINT right_elbow
							{
								OFFSET	291.4	-30.8	15.2
								CHANNELS 3  Xrotation Yrotation Zrotation
								JOINT right_lowarm_twist
								{
									OFFSET	110.7	-3.89999	13.6
									CHANNELS 3  Xrotation Yrotation Zrotation
									JOINT right_hand
									{
										OFFSET	110.7	-3.89999	13.6
										CHANNELS 3  Xrotation Yrotation Zrotation
										JOINT right_ee
										{
											OFFSET	80.8	-5.10001	12.1
											CHANNELS 3  Xrotation Yrotation Zrotation
											End Site
											{
												OFFSET	1	0	0
											}
										}
									}
								}
							}
						}
					}
				}
			}
		}
	}
	JOINT left_hip
	{
		OFFSET	-82.8	-127.5	0.300001
		CHANNELS 3  Xrotation Yrotation Zrotation
		JOINT left_knee
		{
			OFFSET	-28.2	-396.7	2.2
			CHANNELS 3  Xrotation Yrotation Zrotation
			JOINT left_ankle
			{
				OFFSET	-11.7	-411.3	35.4
				CHANNELS 3  Xrotation Yrotation Zrotation
				JOINT left_toes
				{
					OFFSET	0	-60	-88.6
					CHANNELS 3  Xrotation Yrotation Zrotation
					JOINT left_foot_ee
					{
						OFFSET	-22.5	-16.5	-42.2
						CHANNELS 3  Xrotation Yrotation Zrotation
						End Site
						{
							OFFSET	1	0	0
						}
					}
				}
			}
		}
	}
	JOINT right_hip
	{
		OFFSET	82.8	-127.5	0.300001
		CHANNELS 3  Xrotation Yrotation Zrotation
		JOINT right_knee
		{
			OFFSET	28.2	-396.7	2.2
			CHANNELS 3  Xrotation Yrotation Zrotation
			JOINT right_ankle
			{
				OFFSET	11.7	-411.3	35.4
				CHANNELS 3  Xrotation Yrotation Zrotation
				JOINT right_toes
				{
					OFFSET	0	-60	-88.6
					CHANNELS 3  Xrotation Yrotation Zrotation
					JOINT right_foot_ee
					{
						OFFSET	22.5	-16.5	-42.2
						CHANNELS 3  Xrotation Yrotation Zrotation
						End Site
						{
							OFFSET	1	0	0
						}
					}
				}
			}
		}
	}
}
MOTION
Frames: 13
Frame Time: 0.02
3509.81378103 741.735 -1529.32820987 10.7967588295 83.957681145 -16.9078788734 -0.627823 0.594034 2.58333 -0.624212 0.428504 2.61586 -0.601791 -0.158616 2.64596 -0.611466 0.261105 2.63782 -8.54335 3.55093 -7.07334 -8.40611 11.584 -6.19815 -0.0 0.0 -0.0 0.572534 19.34 3.10856 -2.54836 -20.1445 75.6835 0.838949 -22.5671 0.167391 -29.8019 -1.93753 3.23629 -2.31682 28.269 -1.51978 -0.0 0.0 -0.0 12.0711 27.1567 -23.4075 2.89966 -21.218 -69.4013 1.04656 27.4032 -0.255162 -49.5692 4.02139 -4.66018 -7.95735 -29.7211 33.1059 0.0 0.0 0.0 3.80459 13.558 1.8983 -5.05109 0.174765 0.755242 27.9794 8.7864 -3.67154 -4.59725 0.0 0.0 -0.0 0.0 -0.0 -1.09409 11.0111 2.1244 -18.3396 -0.311703 -2.78512 35.5536 -11.0023 4.47228 -2.46242 0.0 0.0 0.0 0.0 0.0 
3511.7915934 741.735 -1531.58605278 8.09607587037 81.9514186944 -14.1870729476 -0.627823 0.594034 2.58333 -0.624212 0.428504 2.61586 -0.601791 -0.158616 2.64596 -0.611466 0.261105 2.63782 -8.54335 3.55093 -7.07334 -8.40611 11.584 -6.19815 -0.0 0.0 -0.0 0.572534 19.34 3.10856 -2.54836 -20.1445 75.6835 0.838949 -22.5671 0.167391 -29.8019 -1.93753 3.23629 -2.31682 28.269 -1.51978 -0.0 0.0 -0.0 12.0711 27.1567 -23.4075 2.89966 -21.218 -69.4013 1.04656 27.4032 -0.255162 -49.5692 4.02139 -4.66018 -7.95735 -29.7211 33.1059 0.0 0.0 0.0 3.80459 13.558 1.8983 -5.05109 0.174765 0.755242 27.9794 8.7864 -3.67154 -4.59725 0.0 0.0 -0.0 0.0 -0.0 -1.09409 11.0111 2.1244 -18.3396 -0.311703 -2.78512 35.5536 -11.0023 4.47228 -2.46242 0.0 0.0 0.0 0.0 0.0 
3512.25205588 741.735 -1532.08917341 7.66079966938 81.4937987232 -13.7472181512 -0.627823 0.594034 2.58333 -0.624212 0.428504 2.61586 -0.601791 -0.158616 2.64596 -0.611466 0.261105 2.63782 -8.54335 3.55093 -7.07334 -8.40611 11.584 -6.19815 -0.0 0.0 -0.0 0.572534 19.34 3.10856 -2.54836 -20.1445 75.6835 0.838949 -22.5671 0.167391 -29.8019 -1.93753 3.23629 -2.31682 28.269 -1.51978 -0.0 0.0 -0.0 12.0711 27.1567 -23.4075 2.89966 -21.218 -69.4013 1.04656 27.4032 -0.255162 -49.5692 4.02139 -4.66018 -7.95735 -29.7211 33.1059 0.0 0.0 0.0 3.80459 13.558 1.8983 -5.05109 0.174765 0.755242 27.9794 8.7864 -3.67154 -4.59725 0.0 0.0 -0.0 0.0 -0.0 -1.09409 11.0111 2.1244 -18.3396 -0.311703 -2.78512 35.5536 -11.0023 4.47228 -2.46242 0.0 0.0 0.0 0.0 0.0 
3507.04532664 743.872 -1532.32785899 6.15273094074 83.2841085292 -12.3350357812 -0.628544 0.689572 2.63243 -0.624839 0.520728 2.67094 -0.597487 -0.0805007 2.72 -0.60764 0.349923 2.69862 -8.85153 3.65743 -6.74371 -8.73333 11.5296 -5.81121 -0.0 0.0 -0.0 0.509032 19.3688 3.01702 -2.69583 -18.4931 75.6243 0.748681 -20.3485 0.134364 -29.6638 -1.92484 3.22392 -2.3893 29.4289 -1.32027 -0.0 0.0 -0.0 11.7252 28.2146 -22.4904 3.94862 -20.7851 -69.6459 1.06417 27.7956 -0.263319 -49.0314 3.95871 -4.63129 -7.97788 -29.6284 33.3492 0.0 0.0 0.0 6.18772 12.713 1.89308 -5.80422 0.195089 0.869034 24.6978 8.90833 -3.29808 -5.30133 0.0 0.0 -0.0 0.0 -0.0 -2.86079 11.1853 2.2542 -14.727 -0.321171 -2.231 35.4432 -9.45156 4.45166 -3.40674 0.0 0.0 0.0 0.0 0.0 
3481.05729315 740.395 -1528.99701744 43.3480010025 85.5711312575 -49.7934811919 -0.948923 0.757505 2.7007 -0.945055 0.584184 2.74339 -0.913395 -0.0499736 2.80441 -0.924154 0.393383 2.77715 -8.13062 4.0936 -6.90375 -7.99411 12.5083 -5.95864 -0.0 0.0 -0.0 0.276964 19.793 2.71672 -4.59253 -16.7847 74.8052 0.617118 -16.9986 0.0922223 -28.7256 -1.83951 3.13914 -2.06045 28.5731 0.0139198 -0.0 0.0 -0.0 11.5858 26.907 -22.334 5.38757 -21.2282 -69.7114 1.0349 27.1417 -0.249817 -45.2811 3.5295 -4.41363 -7.25754 -29.6974 28.5697 0.0 0.0 0.0 10.4206 12.33 1.77506 -10.8378 0.292317 1.63508 18.1563 11.3078 -2.50576 -6.3168 0.0 0.0 -0.0 0.0 -0.0 -8.323 13.9091 3.10614 -14.3296 -0.32008 -2.17005 37.1406 -5.29815 4.60155 -4.34684 0.0 0.0 0.0 0.0 0.0 
3469.87031797 739.285 -1525.38281451 77.7732400161 86.7109672269 -84.6027548998 -1.02086 0.791904 2.72743 -1.01693 0.616815 2.77225 -0.9832 -0.0281223 2.83985 -0.994207 0.420551 2.8087 -7.97461 3.64059 -6.45353 -7.85266 11.3568 -5.62548 -0.0 0.0 -0.0 0.17071 20.0305 2.58564 -5.65021 -15.0577 74.7061 0.570076 -15.7698 0.0789521 -28.7129 -1.83837 3.13799 -2.00243 27.7404 -0.0757533 -0.0 0.0 -0.0 11.2061 27.8872 -21.3578 5.93655 -20.2936 -71.4794 1.12152 29.0542 -0.29062 -47.6366 3.79743 -4.55362 -7.53593 -29.7526 30.2924 0.0 0.0 0.0 11.6434 12.2311 1.99911 -9.66133 0.275628 1.45534 13.4369 12.7953 -1.89374 -7.14676 0.0 0.0 -0.0 0.0 -0.0 -10.1945 10.2227 3.83667 -12.8027 -0.311952 -1.93592 37.1771 -3.36016 4.60759 -4.61501 0.0 0.0 0.0 0.0 0.0 
3454.37479029 738.878 -1519.82887789 108.59432022 86.1093539467 -115.689004264 -1.0926 0.768699 2.86711 -1.08822 0.584779 2.91017 -1.05422 -0.0943481 2.96679 -1.06631 0.375178 2.9445 -7.51459 3.75251 -6.41576 -7.38618 11.5682 -5.61653 -0.0 0.0 -0.0 0.0331355 20.1774 2.40019 -6.97849 -13.7786 74.5513 0.457807 -12.7778 0.0512618 -27.9942 -1.77397 3.07208 -1.6786 27.0768 1.38048 -0.0 0.0 -0.0 10.8987 27.0521 -20.7642 7.33613 -20.0208 -72.121 1.18242 30.358 -0.320803 -47.1859 3.74573 -4.52769 -7.35964 -29.5797 29.3386 0.0 0.0 0.0 13.7598 12.2108 2.31334 -11.8048 0.303269 1.78305 10.0353 14.613 -1.43612 -7.79643 0.0 0.0 -0.0 0.0 -0.0 -12.5417 10.2429 4.22779 -11.395 -0.298933 -1.72032 37.7673 -0.521464 4.67494 -5.14543 0.0 0.0 0.0 0.0 0.0 
3446.46529013 735.258 -1519.54244223 127.247643887 85.2235932127 -134.649317027 -1.19506 0.691595 2.97786 -1.19027 0.500793 3.01578 -1.1593 -0.205944 3.0501 -1.17218 0.278118 3.04438 -6.04631 3.61867 -6.30926 -5.89742 11.3317 -5.70497 -0.0 0.0 -0.0 0.0546857 19.8563 2.3963 -8.11791 -12.8346 74.4956 0.402538 -11.2774 0.0397439 -27.8241 -1.75885 3.05637 -1.59777 27.1832 1.87275 -0.0 0.0 -0.0 11.0514 27.3574 -21.0725 8.81334 -19.7629 -72.0558 1.23499 31.4562 -0.347807 -45.3427 3.53643 -4.41743 -7.00419 -29.4065 27.2659 0.0 0.0 0.0 16.0082 12.0947 2.02056 -12.7642 0.311666 1.93002 7.67627 15.1857 -1.1082 -8.26449 0.0 0.0 -0.0 0.0 -0.0 -13.8 10.3619 4.11525 -10.3551 -0.285917 -1.5613 37.714 1.97791 4.6913 -5.44118 0.0 0.0 0.0 0.0 0.0 
3441.05330093 737.682 -1519.32231079 138.77540123 84.6409115087 -146.158409722 -1.25008 0.607577 3.06608 -1.24494 0.411339 3.09848 -1.21793 -0.315348 3.10971 -1.23137 0.179484 3.12049 -5.63472 3.39333 -7.63135 -5.41749 11.922 -7.14506 -0.0 0.0 -0.0 0.479221 19.4664 2.98241 -8.90999 -12.1055 74.006 0.320131 -9.01131 0.0252266 -27.5239 -1.73227 3.02853 -1.39932 25.8849 2.38498 -0.0 0.0 -0.0 11.0139 27.454 -20.9765 10.5063 -19.5466 -72.8896 1.32526 33.283 -0.396139 -44.4098 3.43188 -4.35908 -6.648 -29.2217 25.2407 0.0 0.0 0.0 17.5827 12.1077 2.09167 -11.6626 0.301816 1.76128 6.70513 14.6738 -0.969808 -8.63044 0.0 0.0 -0.0 0.0 -0.0 -14.56 10.4372 4.01654 -7.47136 -0.234745 -1.12179 36.3797 3.5582 4.58607 -7.31728 0.0 0.0 0.0 0.0 0.0 
3433.24085121 740.69 -1517.65558591 143.594461444 84.2194051315 -150.972590273 -1.3769 0.665914 3.13726 -1.37154 0.465035 3.17323 -1.34051 -0.287145 3.19422 -1.35468 0.22066 3.1995 -4.8619 3.56878 -6.94542 -4.66237 11.7846 -6.50705 -0.0 0.0 -0.0 0.361488 19.3207 2.79302 -9.49174 -11.202 74.1 0.299845 -8.44882 0.0221478 -27.0207 -1.68807 2.98156 -1.24263 26.0499 3.33058 -0.0 0.0 -0.0 10.9634 27.5209 -20.8548 11.7804 -19.3551 -73.0706 1.39544 34.6527 -0.435356 -44.0289 3.38946 -4.33477 -6.54043 -29.1172 24.6802 0.0 0.0 0.0 20.3687 12.205 2.28429 -10.2629 0.284624 1.54721 4.51142 14.7536 -0.656742 -8.87611 0.0 0.0 -0.0 0.0 -0.0 -15.5379 10.7056 3.53439 -5.46976 -0.186248 -0.818468 36.039 4.41124 4.56515 -8.15706 0.0 0.0 0.0 0.0 0.0 
3427.07562052 739.528 -1513.694148 150.971314641 83.3163311419 -158.049534128 -1.64386 0.661754 3.21571 -1.63822 0.4559 3.25125 -1.60642 -0.329424 3.26648 -1.62126 0.190304 3.27751 -4.72374 3.59906 -7.12314 -4.5119 11.9828 -6.70281 -0.0 0.0 -0.0 0.514888 19.3512 3.024 -10.0027 -11.1484 73.48 0.269937 -7.61652 0.0179683 -26.9873 -1.68515 2.97842 -1.24556 25.8328 3.21977 -0.0 0.0 -0.0 11.0214 27.6479 -20.9703 13.6579 -19.0123 -73.1828 1.46082 35.889 -0.473108 -43.4988 3.33071 -4.30047 -6.37104 -29.0016 23.7577 0.0 0.0 0.0 21.9874 12.0922 1.79276 -9.18734 0.267861 1.38302 3.58144 14.7442 -0.522666 -9.08061 0.0 0.0 -0.0 0.0 -0.0 -16.2288 10.7398 3.15619 -3.93716 -0.141964 -0.587438 36.1986 5.71923 4.5995 -8.70504 0.0 0.0 0.0 0.0 0.0 
3426.66773568 739.528 -1512.11769025 153.316510731 82.7749892948 -160.412080543 -1.64386 0.661754 3.21571 -1.63822 0.4559 3.25125 -1.60642 -0.329424 3.26648 -1.62126 0.190304 3.27751 -4.72374 3.59906 -7.12314 -4.5119 11.9828 -6.70281 -0.0 0.0 -0.0 0.514888 19.3512 3.024 -10.0027 -11.1484 73.48 0.269937 -7.61652 0.0179683 -26.9873 -1.68515 2.97842 -1.24556 25.8328 3.21977 -0.0 0.0 -0.0 11.0214 27.6479 -20.9703 13.6579 -19.0123 -73.1828 1.46082 35.889 -0.473108 -43.4988 3.33071 -4.30047 -6.37104 -29.0016 23.7577 0.0 0.0 0.0 21.9874 12.0922 1.79276 -9.18734 0.267861 1.38302 3.58144 14.7442 -0.522666 -9.08061 0.0 0.0 -0.0 0.0 -0.0 -16.2288 10.7398 3.15619 -3.93716 -0.141964 -0.587438 36.1986 5.71923 4.5995 -8.70504 0.0 0.0 0.0 0.0 0.0 
3422.47868218 737.701 -1508.76312774 160.588897796 80.6756660162 -167.469590943 -1.62972 0.54217 3.29623 -1.62373 0.331443 3.32401 -1.5986 -0.467374 3.30765 -1.61386 0.0605711 3.33992 -5.23848 3.65576 -7.21593 -5.03134 12.1231 -6.7235 -0.0 0.0 -0.0 0.60755 18.6714 3.09655 -10.0079 -10.9621 73.259 0.250749 -7.08082 0.015514 -26.8501 -1.67318 2.96555 -1.18876 25.7007 3.47987 -0.0 0.0 -0.0 10.9857 27.4953 -20.9082 15.0749 -18.5116 -73.1384 1.53777 37.2964 -0.518987 -43.1266 3.28965 -4.27607 -6.2203 -28.6754 23.1347 0.0 0.0 0.0 23.5467 11.9741 1.96075 -6.48443 0.212157 0.972026 2.8995 14.1133 -0.423402 -9.33921 0.0 0.0 -0.0 0.0 -0.0 -16.6551 10.8904 2.71946 -2.87011 -0.107487 -0.427309 35.041 5.96311 4.49242 -9.29718 0.0 0.0 0.0 0.0 0.0 
